<?xml version="1.0" encoding="UTF-8"?>
<svg width="120px" height="108px" viewBox="0 0 120 108" version="1.1" xmlns="http://www.w3.org/2000/svg" xmlns:xlink="http://www.w3.org/1999/xlink">
    <!-- Generator: Sketch 55.2 (78181) - https://sketchapp.com -->
    <title>Logo Meter 1 rgb</title>
    <desc>Created with Sketch.</desc>
    <g id="Page-1" stroke="none" stroke-width="1" fill="none" fill-rule="evenodd">
        <g id="home-copy-3" transform="translate(-202.000000, -51.000000)" fill="#21D39B">
            <g id="Group-40" transform="translate(-164.000000, -91.000000)">
                <g id="Group-39" transform="translate(164.000000, 142.000000)">
                    <g id="Group-3" transform="translate(202.000000, 0.000000)">
                        <g id="Logo-Meter-1-rgb">
                            <path d="M59.3960897,0 C82.0129066,0 101.361221,13.9851198 109.270353,33.7783554 L100.082217,36.7048319 C93.4319705,20.792296 77.7206262,9.61006342 59.3960897,9.61006342 C35.0518987,9.61006342 15.3167212,29.3452409 15.3167212,53.6894319 C15.3167212,53.9912194 15.3224695,54.2918572 15.3282178,54.5924951 L6.33839958,61.945188 C5.9227951,59.2543933 5.70665777,56.4969179 5.70665777,53.6894319 C5.70665777,24.03723 29.7444626,0 59.3960897,0 Z M112.699808,47.2461253 C112.952735,49.3586377 113.086096,51.5085143 113.086096,53.6894319 C113.086096,83.341059 89.0482916,107.379439 59.3960897,107.379439 C37.8036258,107.379439 19.1916726,94.6307854 10.6674693,76.2522145 L19.2572036,71.9300428 C26.1948669,87.1717482 41.5572873,97.7693753 59.3960897,97.7693753 C83.7408556,97.7693753 103.476033,78.0341978 103.476033,53.6894319 C103.476033,53.2376129 103.466836,52.7880933 103.453615,52.3391485 L112.699808,47.2461253 L112.699808,47.2461253 Z" id="Fill-1"></path>
                            <g id="Group-5" transform="translate(0.000000, 31.236443)">
                                <polyline id="Fill-2" points="0.13336133 42.9544197 52.651283 0.00229933327 50.4720898 17.8589215 81.119903 0.491482487 79.5655538 17.4548137 119.768821 4.64867705 65.2412823 34.6819934 69.3128267 17.5933485 37.8125357 36.0541206 39.8951568 22.9467712 0.13336133 42.9544197"></polyline>
                            </g>
                        </g>
                    </g>
                </g>
            </g>
        </g>
    </g>
</svg>